<?xml version="1.0" encoding="UTF-8"?>
<!-- Created with Inkscape (http://www.inkscape.org/) -->
<svg width="779" height="1580" version="1.1" viewBox="0 0 779 1580" xmlns="http://www.w3.org/2000/svg" xmlns:cc="http://creativecommons.org/ns#" xmlns:dc="http://purl.org/dc/elements/1.1/" xmlns:rdf="http://www.w3.org/1999/02/22-rdf-syntax-ns#">
 <metadata>
  <rdf:RDF>
   <cc:Work rdf:about="">
    <dc:format>image/svg+xml</dc:format>
    <dc:type rdf:resource="http://purl.org/dc/dcmitype/StillImage"/>
    <dc:title/>
   </cc:Work>
  </rdf:RDF>
 </metadata>
 <g transform="translate(0 457.48)">
  <g>
   <rect x="739" y="12.52" width="40" height="145" rx="10" ry="10" fill="#a9a191"/>
   <rect x="739" y="262.52" width="40" height="210" rx="10" fill="#a9a191"/>
   <g>
    <rect x="1" y="-432.48" width="498" height="1530" rx="10" ry="10" fill="#dbd3c5" stroke="#444" stroke-width="2"/>
    <rect x="14" y="-452.48" width="500" height="1570" rx="35" ry="35" fill="#dbd3c5" stroke="#dbd3c5" stroke-width="10"/>
    <rect x="14" y="-452.48" width="755" height="1570" rx="125" ry="125" fill="#111" stroke="#dbd3c5" stroke-width="10"/>
   </g>
  </g>
  <g fill="none" stroke="#a9a191" stroke-width="10">
   <path d="m764 707.52h10"/>
   <path d="m764-42.48h10"/>
   <path d="m579-452.48h10"/>
   <path d="m579 1117.5h10"/>
   <path d="m129-452.48h10"/>
   <path d="m129 1117.5h10"/>
  </g>
  <rect x="39" y="-427.48" width="705" height="1520" rx="100" ry="100" fill="#ddd"/>
  <circle cx="391.5" cy="-374.98" r="22.5" fill="#111"/>
  <circle cx="391.5" cy="-374.98" r="12.5" fill="#84f" fill-opacity=".13333"/>
  <circle cx="391.5" cy="-374.98" r="7.5" fill="#04f" fill-opacity=".26667"/>
 </g>
</svg>
